# xmcd
#
# Track frame offsets: 
#        150
#        15347
#        29754
#        46579
#        64643
#        82490
#        101832
#        115471
#        135142
#        152979
#        169584
#        189068
#
# Disc length: 2784 seconds
#
# Revision: 3
# Processed by: cddbd v1.5.2PL0 Copyright (c) Steve Scherf et al.
# Submitted via: ExactAudioCopy v1.0b3
#
DISCID=930ade0c
DTITLE=Warwick, Dionne - Now
DYEAR=2012
DGENRE=Pop - 1960s
TTITLE0=There's Always Something There To Remind Me
TTITLE1=Are You There (With Another Girl)
TTITLE2=Don't Make Me Over
TTITLE3=Love Is Still The Answer
TTITLE4=99 Miles From LA
TTITLE5=Be Aware
TTITLE6=Reach Out
TTITLE7=Is There Anybody Out There?
TTITLE8=I Just Have To Breathe
TTITLE9=It Was Almost Like A Song
TTITLE10=Make It Easy On Yourself
TTITLE11=Warwick, Dionne with David Elliott - I Say A Little Prayer
EXTD=
EXTT0=
EXTT1=
EXTT2=
EXTT3=
EXTT4=
EXTT5=
EXTT6=
EXTT7=
EXTT8=
EXTT9=
EXTT10=
EXTT11=
PLAYORDER=
